<svg version="1.1" id="Layer_1" xmlns="http://www.w3.org/2000/svg" xmlns:xlink="http://www.w3.org/1999/xlink" x="0px" y="0px" width="100%" viewBox="0 0 2331 1285" enable-background="new 0 0 2331 1285" xml:space="preserve">

<path fill="#000000" opacity="1.000000" stroke="none" d="
M2332.000000,108.999969 
	C2332.000000,501.264191 2332.000000,893.528381 2332.000000,1286.000000 
	C1964.300659,1286.000000 1596.601196,1286.000000 1228.153564,1285.656860 
	C1234.650024,1282.881104 1241.918335,1280.516235 1249.135132,1278.003174 
	C1270.710449,1270.489868 1287.732422,1257.124390 1299.967651,1237.835938 
	C1304.008545,1231.465576 1306.801636,1224.189697 1311.439819,1218.338257 
	C1319.287598,1208.437866 1328.637451,1199.725708 1336.454590,1189.803711 
	C1345.037964,1178.909180 1353.463989,1167.713257 1360.425903,1155.756226 
	C1373.763794,1132.848389 1377.763428,1107.225464 1378.874268,1081.170776 
	C1379.309937,1070.951904 1378.996460,1060.597168 1377.839478,1050.439331 
	C1376.246826,1036.455566 1374.289307,1022.424133 1371.121582,1008.729248 
	C1366.060791,986.850708 1359.427734,965.395447 1349.653320,945.032837 
	C1348.445923,942.517395 1348.061401,939.382446 1348.088623,936.542236 
	C1348.161743,928.956482 1348.197144,921.317139 1349.122437,913.806763 
	C1350.205688,905.011414 1350.934204,895.830994 1354.102173,887.709167 
	C1359.672485,873.428406 1366.577637,859.615723 1373.671265,845.996338 
	C1381.017456,831.891785 1389.193848,818.216431 1397.112671,804.413818 
	C1407.029175,787.129150 1417.380127,770.084534 1426.922852,752.597473 
	C1434.005249,739.618713 1440.090942,726.096558 1446.634033,712.822998 
	C1458.127441,689.507385 1469.924683,666.306152 1473.278931,639.608887 
	C1475.057983,640.548218 1476.262207,641.471436 1477.619141,641.855957 
	C1490.900024,645.619446 1504.053101,650.052185 1517.548950,652.776306 
	C1530.737183,655.438354 1544.243896,657.197205 1557.680054,657.796082 
	C1577.618164,658.684814 1597.651978,658.558411 1617.415405,654.950623 
	C1628.507080,652.925659 1639.646851,650.915894 1650.517700,647.982910 
	C1672.020508,642.181458 1690.743530,631.115906 1707.803223,616.840088 
	C1723.427368,603.765381 1735.810059,588.263428 1745.231201,570.311523 
	C1751.999023,557.415405 1756.324585,543.667297 1758.980103,529.380371 
	C1759.614380,525.968201 1761.228516,522.172791 1760.355835,519.139587 
	C1755.460205,502.126038 1748.720093,485.877258 1735.639038,473.308289 
	C1730.978271,468.829895 1725.383911,465.323059 1720.038208,461.237030 
	C1726.202393,457.546387 1732.246704,454.175781 1738.039551,450.417480 
	C1767.827515,431.091736 1795.518433,409.015533 1821.976318,385.409485 
	C1834.934692,373.847748 1847.520020,361.836487 1859.799927,349.554474 
	C1872.080200,337.271851 1883.529297,324.159454 1895.779175,311.845001 
	C1910.058838,297.490021 1926.820435,286.334900 1943.864624,275.503815 
	C1975.374878,255.479919 2007.958252,237.456848 2041.368896,220.822998 
	C2058.805908,212.141800 2077.432617,208.132797 2096.348877,205.091965 
	C2109.681152,202.948730 2123.137939,201.543289 2136.562500,200.016647 
	C2152.302979,198.226639 2168.056152,196.517853 2183.829590,195.052017 
	C2193.975098,194.109161 2204.175293,193.769043 2214.336426,192.973938 
	C2225.594482,192.093033 2236.849854,191.134445 2248.081543,189.969620 
	C2263.833984,188.335999 2278.885010,184.002686 2291.868408,174.841187 
	C2300.685303,168.619629 2310.133545,162.087540 2316.232910,153.513062 
	C2324.517578,141.865799 2329.406982,128.018753 2329.135986,113.028015 
	C2329.112305,111.703011 2331.000000,110.343460 2332.000000,108.999969 
M1477.000000,1230.251465 
	C1476.435425,1224.085449 1476.825439,1217.642578 1475.132202,1211.803955 
	C1469.456665,1192.234375 1456.437012,1180.699585 1436.078369,1176.845947 
	C1413.567017,1172.584839 1389.751099,1184.221680 1381.071655,1204.739746 
	C1373.963745,1221.542480 1375.015015,1238.089844 1385.045166,1253.383423 
	C1397.389893,1272.206177 1421.672852,1280.036743 1444.108032,1272.287842 
	C1463.438721,1265.611206 1473.966431,1251.234741 1477.000000,1230.251465 
z" data-index="1" style="visibility: hidden;"></path>

<path fill="#FFFFFF" opacity="1.000000" stroke="none" d="
M186.531342,0.999999 
	C187.320618,1.654314 187.571976,2.831473 187.972244,2.884500 
	C193.953812,3.676909 199.963364,4.255273 205.949753,5.014623 
	C215.951874,6.283350 225.939331,7.667485 235.938354,8.961179 
	C244.011307,10.005671 252.130341,10.752609 260.161469,12.049326 
	C275.330688,14.498567 290.614685,16.550276 305.552155,20.044579 
	C325.541595,24.720671 345.453766,29.962631 365.004852,36.197941 
	C379.149017,40.708870 392.801880,46.893421 406.403076,52.940563 
	C423.711182,60.635818 441.153473,68.190926 457.798737,77.175804 
	C480.274139,89.307693 502.318756,102.302582 524.035095,115.755440 
	C541.978516,126.871002 559.281799,139.036942 576.673828,151.020248 
	C591.567383,161.282028 605.809631,172.531845 621.035583,182.255524 
	C634.684875,190.972382 649.126404,198.502899 663.500061,206.017929 
	C682.160828,215.774429 700.928467,225.361420 719.962158,234.361343 
	C745.769043,246.563904 771.918030,258.040741 797.832397,270.019043 
	C817.215820,278.978577 836.964111,286.935577 857.693298,292.157013 
	C862.855469,293.457306 868.345642,293.649811 873.703857,293.852081 
	C875.200562,293.908600 877.735596,292.495209 878.147217,291.223175 
	C882.205200,278.681549 892.957275,273.325287 903.164917,267.394257 
	C920.891602,257.094421 939.489563,248.819473 959.685181,244.794998 
	C971.429932,242.454575 983.278687,240.406021 995.177490,239.128250 
	C1009.538147,237.586136 1024.002197,237.010605 1038.420044,235.995499 
	C1047.583618,235.350327 1056.769653,234.898987 1065.896362,233.906799 
	C1070.818604,233.371658 1075.601196,231.654922 1080.510864,230.875214 
	C1087.737793,229.727493 1095.002563,228.354340 1102.285645,228.112656 
	C1122.189819,227.452148 1142.111084,227.238235 1162.027466,227.031067 
	C1177.097900,226.874283 1192.171509,227.000000 1207.811279,227.000000 
	C1207.981689,227.498810 1208.687500,228.938400 1208.953491,230.455109 
	C1210.029297,236.591278 1210.015747,236.704636 1215.610840,234.760468 
	C1229.312256,229.999634 1242.893311,232.366898 1256.534302,235.092789 
	C1261.303589,236.045868 1266.179810,236.647644 1271.035767,236.948761 
	C1284.194458,237.764862 1297.419678,237.814758 1310.525635,239.109299 
	C1337.416260,241.765427 1364.001831,246.352859 1389.674683,255.066757 
	C1406.399170,260.743408 1422.652954,267.522491 1435.153076,280.725769 
	C1438.737061,284.511292 1442.676880,288.300659 1445.035767,292.827148 
	C1448.761719,299.976898 1455.185669,300.206268 1460.772217,298.728851 
	C1476.859131,294.474396 1493.005127,289.985046 1508.457397,283.888458 
	C1537.510376,272.425659 1566.313721,260.262177 1594.804932,247.463989 
	C1620.299072,236.012009 1645.505493,223.838989 1670.325562,210.992432 
	C1688.853027,201.402786 1706.846191,190.686783 1724.548096,179.625549 
	C1739.177734,170.483963 1752.779785,159.709503 1767.294189,150.368759 
	C1786.090698,138.272369 1805.051636,126.372139 1824.478027,115.330833 
	C1843.615845,104.453506 1863.042725,93.924950 1883.034546,84.751015 
	C1907.182007,73.670158 1931.891602,63.746689 1956.678833,54.151531 
	C1972.046021,48.202877 1987.846313,43.189854 2003.758789,38.892635 
	C2015.731079,35.659439 2028.176025,34.145981 2040.437744,32.023960 
	C2052.568848,29.924574 2064.702148,27.793215 2076.894043,26.105104 
	C2086.758545,24.739256 2096.702393,23.916508 2106.626465,23.021677 
	C2122.289551,21.609358 2137.945312,19.644382 2153.641113,19.194347 
	C2170.866699,18.700443 2188.135010,19.600065 2205.381836,20.012690 
	C2211.969971,20.170309 2218.589844,20.313021 2225.126221,21.064398 
	C2245.804932,23.441507 2266.887939,24.347389 2285.935303,34.061684 
	C2301.697998,42.100788 2313.833496,54.102886 2322.285889,69.723969 
	C2325.323486,75.338051 2328.341064,80.962936 2331.684082,86.291443 
	C2332.000000,93.354256 2332.000000,100.708504 2332.000000,108.531357 
	C2331.000000,110.343460 2329.112305,111.703011 2329.135986,113.028015 
	C2329.406982,128.018753 2324.517578,141.865799 2316.232910,153.513062 
	C2310.133545,162.087540 2300.685303,168.619629 2291.868408,174.841187 
	C2278.885010,184.002686 2263.833984,188.335999 2248.081543,189.969620 
	C2236.849854,191.134445 2225.594482,192.093033 2214.336426,192.973938 
	C2204.175293,193.769043 2193.975098,194.109161 2183.829590,195.052017 
	C2168.056152,196.517853 2152.302979,198.226639 2136.562500,200.016647 
	C2123.137939,201.543289 2109.681152,202.948730 2096.348877,205.091965 
	C2077.432617,208.132797 2058.805908,212.141800 2041.368896,220.822998 
	C2007.958252,237.456848 1975.374878,255.479919 1943.864624,275.503815 
	C1926.820435,286.334900 1910.058838,297.490021 1895.779175,311.845001 
	C1883.529297,324.159454 1872.080200,337.271851 1859.799927,349.554474 
	C1847.520020,361.836487 1834.934692,373.847748 1821.976318,385.409485 
	C1795.518433,409.015533 1767.827515,431.091736 1738.039551,450.417480 
	C1732.246704,454.175781 1726.202393,457.546387 1720.038208,461.237030 
	C1725.383911,465.323059 1730.978271,468.829895 1735.639038,473.308289 
	C1748.720093,485.877258 1755.460205,502.126038 1760.355835,519.139587 
	C1761.228516,522.172791 1759.614380,525.968201 1758.980103,529.380371 
	C1756.324585,543.667297 1751.999023,557.415405 1745.231201,570.311523 
	C1735.810059,588.263428 1723.427368,603.765381 1707.803223,616.840088 
	C1690.743530,631.115906 1672.020508,642.181458 1650.517700,647.982910 
	C1639.646851,650.915894 1628.507080,652.925659 1617.415405,654.950623 
	C1597.651978,658.558411 1577.618164,658.684814 1557.680054,657.796082 
	C1544.243896,657.197205 1530.737183,655.438354 1517.548950,652.776306 
	C1504.053101,650.052185 1490.900024,645.619446 1477.619141,641.855957 
	C1476.262207,641.471436 1475.057983,640.548218 1473.278931,639.608887 
	C1469.924683,666.306152 1458.127441,689.507385 1446.634033,712.822998 
	C1440.090942,726.096558 1434.005249,739.618713 1426.922852,752.597473 
	C1417.380127,770.084534 1407.029175,787.129150 1397.112671,804.413818 
	C1389.193848,818.216431 1381.017456,831.891785 1373.671265,845.996338 
	C1366.577637,859.615723 1359.672485,873.428406 1354.102173,887.709167 
	C1350.934204,895.830994 1350.205688,905.011414 1349.122437,913.806763 
	C1348.197144,921.317139 1348.161743,928.956482 1348.088623,936.542236 
	C1348.061401,939.382446 1348.445923,942.517395 1349.653320,945.032837 
	C1359.427734,965.395447 1366.060791,986.850708 1371.121582,1008.729248 
	C1374.289307,1022.424133 1376.246826,1036.455566 1377.839478,1050.439331 
	C1378.996460,1060.597168 1379.309937,1070.951904 1378.874268,1081.170776 
	C1377.763428,1107.225464 1373.763794,1132.848389 1360.425903,1155.756226 
	C1353.463989,1167.713257 1345.037964,1178.909180 1336.454590,1189.803711 
	C1328.637451,1199.725708 1319.287598,1208.437866 1311.439819,1218.338257 
	C1306.801636,1224.189697 1304.008545,1231.465576 1299.967651,1237.835938 
	C1287.732422,1257.124390 1270.710449,1270.489868 1249.135132,1278.003174 
	C1241.918335,1280.516235 1234.650024,1282.881104 1227.702637,1285.656860 
	C1214.312378,1286.000000 1200.624878,1286.000000 1186.468628,1286.000000 
	C1185.679565,1285.345703 1185.466675,1284.206787 1185.022827,1284.108154 
	C1174.642456,1281.800781 1164.315063,1278.986816 1153.802124,1277.662354 
	C1148.844971,1277.037842 1143.452759,1279.035156 1138.379150,1280.322998 
	C1122.064209,1284.463745 1105.341553,1285.340454 1088.865601,1283.741577 
	C1059.093018,1280.852661 1034.093750,1267.300049 1014.545654,1244.711670 
	C1008.873779,1238.157715 1004.764709,1229.967163 1001.200317,1221.965088 
	C998.435913,1215.758911 994.090942,1211.034180 989.711182,1206.447266 
	C975.806335,1191.885010 962.258057,1177.135986 952.048584,1159.604736 
	C945.520020,1148.394409 940.666016,1136.428345 938.213501,1123.855103 
	C934.364990,1104.125732 930.728088,1084.157471 932.182678,1063.956909 
	C933.325562,1048.085815 935.366821,1032.192383 938.333313,1016.560242 
	C942.649963,993.812805 951.085510,972.221985 959.148987,950.580017 
	C959.987183,948.330505 960.876404,946.064575 962.054688,943.983215 
	C967.399963,934.540894 966.598450,924.561096 965.044250,914.414490 
	C963.544739,904.624512 962.731445,894.713135 960.843628,885.005432 
	C959.821411,879.748596 957.656311,874.564758 955.198486,869.761658 
	C942.681213,845.299683 929.989746,820.925537 917.175232,796.617615 
	C910.208557,783.402344 902.797302,770.422180 895.730469,757.258789 
	C888.961243,744.649780 881.777466,732.214417 875.856506,719.210632 
	C867.364624,700.560364 859.455505,681.616577 852.104187,662.488037 
	C848.784302,653.849548 847.408386,644.464050 845.059326,635.052246 
	C836.462646,637.382141 827.476135,640.288452 818.282410,642.195679 
	C805.462402,644.855225 792.560852,647.491028 779.559509,648.808960 
	C764.809021,650.304199 749.902893,650.950745 735.077820,650.782776 
	C725.218323,650.671021 715.378784,648.511963 705.536743,647.220215 
	C697.648682,646.184937 689.543335,645.911499 681.929626,643.844543 
	C658.106262,637.377014 636.092346,627.042358 616.783508,611.327881 
	C597.850342,595.919128 582.815491,577.419678 573.597107,554.811768 
	C569.022461,543.592712 565.753845,531.704834 563.178345,519.840820 
	C559.789612,504.230438 568.441040,491.541779 575.721130,478.981750 
	C581.726929,468.620331 590.130371,460.233337 600.924683,454.541382 
	C601.728455,454.117584 602.257996,453.173615 602.633850,452.771912 
	C587.520020,442.167450 572.372192,431.729614 557.444397,420.986053 
	C549.809204,415.490936 542.118591,409.934265 535.230408,403.564819 
	C511.677002,381.785065 488.179077,359.928314 465.241638,337.505920 
	C452.519043,325.069061 441.594635,310.770264 428.677643,298.561340 
	C416.639618,287.183289 403.730255,276.419159 389.961609,267.251282 
	C368.567505,253.006042 346.228088,240.159729 324.077209,227.079773 
	C311.210815,219.482254 298.112732,212.225739 284.784760,205.475632 
	C271.241180,198.616379 256.563416,194.866516 241.697693,192.028183 
	C228.832977,189.571915 215.954712,187.152969 203.021698,185.100082 
	C194.335388,183.721313 185.536957,183.060150 176.799896,181.986771 
	C166.460724,180.716553 156.139633,179.298477 145.798248,178.047256 
	C141.732178,177.555313 137.638367,177.201553 133.546890,177.028595 
	C123.632652,176.609512 113.681358,176.716278 103.801308,175.915970 
	C86.208214,174.490891 68.897179,171.379074 52.413956,164.767120 
	C25.842960,154.108658 10.788323,133.556793 2.988116,106.836670 
	C2.735755,105.972198 2.110219,105.216652 1.329322,104.705170 
	C1.000000,96.645767 1.000000,88.291534 1.426885,79.461472 
	C2.569225,75.815254 3.331096,72.654518 3.992586,69.472916 
	C8.228378,49.099861 18.209190,32.320606 35.962841,21.106533 
	C53.131561,10.261930 72.336281,5.735311 92.543358,4.933999 
	C99.057434,4.675683 105.544670,3.674045 112.028564,2.884242 
	C112.423035,2.836192 112.679390,1.654315 113.000000,1.000000 
	C137.354233,1.000000 161.708450,1.000000 186.531342,0.999999 
M1636.580811,456.040649 
	C1659.563110,448.460846 1681.402954,438.166351 1701.786743,425.354340 
	C1721.448730,412.996185 1740.516113,399.530243 1758.859253,385.282135 
	C1776.556519,371.535919 1793.247925,356.449371 1809.903076,341.421692 
	C1822.343750,330.196533 1834.088867,318.194214 1846.024536,306.417236 
	C1858.532349,294.075623 1870.308350,280.921143 1883.462402,269.321991 
	C1903.748657,251.433914 1927.007324,237.550323 1950.360840,224.135391 
	C1974.589355,210.217834 1999.384521,197.253983 2024.241089,184.474335 
	C2040.455566,176.137909 2057.822021,170.758743 2075.914551,168.007980 
	C2089.390137,165.959152 2102.860840,163.861176 2116.367188,162.032227 
	C2129.926758,160.196091 2143.504395,158.433472 2157.116943,157.068481 
	C2170.174805,155.759125 2183.286377,154.981689 2196.377197,154.006439 
	C2210.126953,152.982101 2223.881104,152.017105 2237.631104,150.995193 
	C2249.530029,150.110870 2260.893555,147.082306 2271.083496,140.885239 
	C2278.703857,136.250885 2285.878418,130.669525 2287.468750,120.989906 
	C2288.601074,114.097046 2289.271240,107.121803 2289.946533,100.163795 
	C2290.169189,97.871155 2290.473145,95.168556 2289.529785,93.248207 
	C2283.251221,80.468849 2274.395752,70.556259 2259.803955,66.914116 
	C2240.109131,61.998180 2220.001221,60.191429 2199.866943,59.159973 
	C2184.241699,58.359509 2168.542725,58.999641 2152.876465,59.000725 
	C2151.709961,59.000809 2150.534912,58.922508 2149.377930,59.030460 
	C2135.370605,60.337284 2121.360107,61.613430 2107.362793,63.020794 
	C2098.111816,63.950932 2088.848633,64.853073 2079.649658,66.176491 
	C2067.624756,67.906471 2055.643555,69.958076 2043.670044,72.025009 
	C2033.318970,73.811867 2022.834961,75.177002 2012.717285,77.880241 
	C1999.886597,81.308296 1987.333008,85.799332 1974.719604,90.010780 
	C1947.000122,99.266029 1920.248047,110.918266 1893.988647,123.639404 
	C1878.229492,131.273743 1862.692505,139.458466 1847.544556,148.239288 
	C1828.203735,159.450592 1809.178955,171.236420 1790.354858,183.300308 
	C1776.637695,192.091232 1763.713379,202.120316 1749.984009,210.890503 
	C1735.093018,220.402863 1719.983276,229.663681 1704.421509,238.013977 
	C1680.763062,250.708740 1656.959595,263.227661 1632.617798,274.529175 
	C1604.283569,287.684418 1575.266479,299.363922 1546.613647,311.839722 
	C1522.316528,322.418976 1497.798462,332.322540 1471.707153,337.635895 
	C1466.470337,338.702362 1461.067261,340.051880 1455.832153,339.739685 
	C1449.808105,339.380463 1443.814209,337.577454 1437.935303,335.941132 
	C1428.525879,333.322174 1419.596924,330.056335 1414.870361,320.157166 
	C1412.955811,316.147339 1409.705200,312.695984 1406.717407,309.293701 
	C1399.366699,300.923737 1389.125610,297.542603 1379.078125,294.016235 
	C1360.133057,287.367096 1340.673462,282.907532 1320.660767,281.000397 
	C1306.492798,279.650269 1292.333862,278.179047 1278.148193,277.046997 
	C1266.134521,276.088287 1254.066162,276.800659 1242.192749,273.216400 
	C1234.053345,270.759338 1225.333984,270.049042 1216.815308,269.062317 
	C1203.330444,267.500427 1189.880249,264.816620 1176.687134,271.767334 
	C1171.409790,274.547577 1164.951538,273.931488 1159.701294,269.873932 
	C1159.082764,269.395935 1158.997803,268.227631 1158.908691,268.000275 
	C1141.149536,268.000275 1122.902222,267.720367 1104.671021,268.138580 
	C1097.419189,268.304901 1090.175781,269.856537 1082.978394,271.072632 
	C1076.467773,272.172607 1070.078491,274.348602 1063.541870,274.868774 
	C1046.149292,276.252747 1028.695435,276.846527 1011.287415,278.061737 
	C1002.016663,278.708923 992.775940,279.875702 983.546997,281.013458 
	C962.814941,283.569244 943.595215,290.652527 925.525574,300.949646 
	C920.330261,303.910156 915.614502,306.892181 912.316101,312.790527 
	C904.777039,326.272522 892.105469,332.763184 876.859009,333.957581 
	C863.001892,335.043152 849.627991,332.438049 836.476624,328.152527 
	C815.416626,321.289825 794.954163,313.054291 774.919739,303.559570 
	C748.977478,291.265076 722.485168,280.128204 696.579895,267.759430 
	C674.425720,257.181671 652.680237,245.732239 630.923828,234.343872 
	C620.538208,228.907532 610.204712,223.232941 600.454163,216.753510 
	C584.454956,206.121765 569.046570,194.605713 553.210632,183.722107 
	C535.934998,171.849030 518.777893,159.753494 500.980865,148.702240 
	C480.917328,136.243546 460.617218,124.028633 439.646454,113.206726 
	C418.566040,102.328217 396.488312,93.392624 374.933685,83.419548 
	C357.696808,75.444229 339.938965,69.006943 321.419312,64.814865 
	C304.756561,61.043102 288.089539,57.220886 271.294495,54.125805 
	C258.837067,51.830082 246.175430,50.633446 233.597290,49.004906 
	C225.357712,47.938091 217.095749,47.042339 208.860275,45.946209 
	C199.519165,44.702915 190.213776,42.341404 180.862595,42.175819 
	C146.868271,41.573864 112.823769,40.963802 79.129128,47.006008 
	C67.458366,49.098843 56.499111,53.124767 49.508778,63.195095 
	C41.185787,75.185265 39.551098,88.727539 44.016132,102.626518 
	C49.322430,119.144234 62.247860,126.616211 78.046982,131.120850 
	C95.939430,136.222351 114.309532,135.531158 132.511322,136.994232 
	C141.344193,137.704224 150.206467,138.128998 159.010880,139.090698 
	C168.705032,140.149582 178.339310,141.745148 188.015930,142.979599 
	C196.747955,144.093567 205.553238,144.719559 214.233978,146.128876 
	C226.672913,148.148331 239.042282,150.610901 251.415375,153.017822 
	C268.006805,156.245285 284.407745,160.281677 299.545044,168.026703 
	C313.987000,175.415924 328.407501,182.913193 342.378204,191.142593 
	C366.077972,205.102814 389.575104,219.424240 412.854218,234.075592 
	C429.749725,244.709259 444.869385,257.776581 459.033875,271.761292 
	C470.038605,282.626312 479.705627,294.835663 490.532196,305.894379 
	C504.358032,320.016663 518.335999,334.044495 533.011108,347.266479 
	C549.762695,362.359375 567.104553,376.828979 584.648621,391.001617 
	C602.492004,405.416046 621.956726,417.535858 642.388672,427.925354 
	C655.103333,434.390656 668.148010,440.310669 681.399353,445.583771 
	C692.068665,449.829376 703.270142,452.737671 714.455078,456.309418 
	C710.787476,458.691376 706.601929,461.543304 702.287964,464.185638 
	C690.633179,471.324463 678.829895,478.470734 665.273865,481.100739 
	C656.993408,482.707245 648.332214,482.263947 639.869141,483.037750 
	C627.526672,484.166321 616.838684,488.850616 610.074829,499.667358 
	C606.988098,504.603638 602.711609,510.836182 603.476868,515.784668 
	C606.641785,536.251892 616.086304,554.225891 630.114380,569.514038 
	C644.222534,584.889587 661.745605,595.376831 681.394653,601.769836 
	C691.435974,605.036926 702.196472,606.185303 712.690857,607.938110 
	C720.553162,609.251282 728.509460,610.813232 736.424500,610.816895 
	C749.592834,610.822937 762.783569,609.950256 775.924988,608.932922 
	C793.545776,607.568848 810.631958,603.422302 827.437866,598.022095 
	C843.237976,592.945068 858.600830,586.978210 872.057861,576.973572 
	C874.215332,575.369568 876.180298,573.506531 878.713928,571.356079 
	C880.199646,585.790588 881.385193,599.420532 883.073242,612.988037 
	C884.251953,622.461914 885.381287,632.050232 887.870850,641.224365 
	C890.752747,651.844177 894.417542,662.375793 898.956238,672.395935 
	C908.293884,693.010864 917.902283,713.540955 928.393738,733.585449 
	C940.388550,756.502136 953.723022,778.713867 965.981201,801.497864 
	C974.432129,817.205261 981.922546,833.426453 990.065613,849.303467 
	C997.420776,863.644226 1002.044617,878.875854 1003.821411,894.750305 
	C1005.340393,908.321899 1005.501892,922.059570 1005.886230,935.734375 
	C1005.987915,939.355225 1005.190857,943.191650 1003.963501,946.627991 
	C996.799927,966.684509 988.715759,986.437439 982.241882,1006.707886 
	C975.600769,1027.501831 971.850952,1049.109741 972.257019,1070.978271 
	C972.497192,1083.912231 975.419250,1096.784180 976.898010,1109.711060 
	C978.222595,1121.289185 982.262634,1131.841553 988.241211,1141.722900 
	C998.430603,1158.563965 1012.741028,1171.938965 1025.789429,1186.385498 
	C1030.076904,1191.132446 1035.045776,1195.469604 1036.270874,1202.438110 
	C1036.780029,1205.334351 1038.454834,1208.129883 1040.015869,1210.720337 
	C1051.680542,1230.079346 1069.529907,1240.643311 1091.254150,1243.707031 
	C1105.191772,1245.672363 1119.485352,1244.051758 1133.249512,1240.302368 
	C1146.707397,1236.636475 1159.891602,1236.676025 1173.415283,1240.597412 
	C1188.459595,1244.959961 1203.817383,1248.144043 1219.692017,1245.014038 
	C1245.604736,1239.905151 1264.723633,1226.486328 1273.994141,1200.907715 
	C1274.314819,1200.022949 1274.591431,1199.025391 1275.193848,1198.354614 
	C1281.793579,1191.004761 1288.669678,1183.891968 1295.043823,1176.353882 
	C1303.240234,1166.660767 1311.437866,1156.924683 1318.938965,1146.696655 
	C1333.580322,1126.732178 1337.731323,1103.382202 1338.872559,1079.385742 
	C1339.318604,1070.005005 1338.568848,1060.539795 1337.918823,1051.143799 
	C1337.471191,1044.671143 1336.635376,1038.172363 1335.302490,1031.826172 
	C1333.155518,1021.604492 1331.041260,1011.309692 1327.837402,1001.393433 
	C1323.961426,989.396790 1319.256958,977.639587 1314.373291,966.004456 
	C1309.322510,953.971375 1307.080933,941.418518 1307.183228,928.578186 
	C1307.250244,920.155640 1309.044067,911.751099 1309.990356,903.330139 
	C1311.544678,889.495667 1313.996704,875.839050 1320.046021,863.194275 
	C1326.761719,849.156555 1333.689087,835.204956 1341.025024,821.483582 
	C1347.763916,808.878662 1355.161865,796.625916 1362.281616,784.224915 
	C1372.524170,766.385071 1383.186157,748.770691 1392.903809,730.649658 
	C1401.487793,714.642456 1409.199341,698.156128 1416.954346,681.720093 
	C1421.327026,672.452698 1425.704102,663.085449 1428.863770,653.368042 
	C1436.449341,630.039246 1437.468262,605.566589 1440.272217,581.260315 
	C1442.924927,582.398621 1445.593628,583.500854 1448.227295,584.681152 
	C1461.546875,590.650208 1474.751099,596.891174 1488.193604,602.568542 
	C1515.085327,613.926147 1543.561279,617.616516 1572.389648,617.750061 
	C1588.046143,617.822571 1603.740967,615.593445 1619.370239,613.944458 
	C1635.931641,612.197144 1651.454590,606.764587 1665.484009,597.901428 
	C1674.082275,592.469421 1682.661377,586.516663 1689.775269,579.337341 
	C1701.198853,567.808655 1710.413696,554.434021 1715.000122,538.503784 
	C1716.638550,532.813416 1719.743652,526.472229 1718.543335,521.266418 
	C1716.211670,511.153320 1710.550659,502.260345 1700.562378,497.164459 
	C1691.832275,492.710480 1682.354248,491.863159 1672.850708,490.991241 
	C1667.503662,490.500702 1661.843018,490.864441 1656.893555,489.174286 
	C1648.280762,486.233276 1640.052979,482.121338 1631.767944,478.276001 
	C1623.050781,474.230194 1615.816772,466.882965 1605.291992,466.034912 
	C1615.512695,462.876862 1625.733521,459.718811 1636.580811,456.040649 
z" data-index="3" style="opacity: 1; visibility: hidden; fill: rgb(121, 40, 202);"></path>

<path fill="#FFFFFF" opacity="1.000000" stroke="none" d="
M1477.000000,1230.718384 
	C1473.966431,1251.234741 1463.438721,1265.611206 1444.108032,1272.287842 
	C1421.672852,1280.036743 1397.389893,1272.206177 1385.045166,1253.383423 
	C1375.015015,1238.089844 1373.963745,1221.542480 1381.071655,1204.739746 
	C1389.751099,1184.221680 1413.567017,1172.584839 1436.078369,1176.845947 
	C1456.437012,1180.699585 1469.456665,1192.234375 1475.132202,1211.803955 
	C1476.825439,1217.642578 1476.435425,1224.085449 1477.000000,1230.718384 
M1442.934326,1262.584106 
	C1447.062012,1259.782959 1451.911743,1257.640991 1455.183228,1254.058105 
	C1465.282104,1242.998047 1468.332764,1229.741211 1464.978394,1215.156738 
	C1459.898193,1193.069458 1436.993652,1179.972900 1415.664795,1186.787842 
	C1392.771484,1194.102783 1384.388306,1214.076294 1388.335205,1233.869751 
	C1393.584351,1260.195312 1419.087280,1272.113281 1442.934326,1262.584106 
z" data-index="5" style="visibility: hidden;"></path>
<path fill="#000000" opacity="1.000000" stroke="none" d="
M1636.267578,456.300720 
	C1625.733521,459.718811 1615.512695,462.876862 1605.291992,466.034912 
	C1615.816772,466.882965 1623.050781,474.230194 1631.767944,478.276001 
	C1640.052979,482.121338 1648.280762,486.233276 1656.893555,489.174286 
	C1661.843018,490.864441 1667.503662,490.500702 1672.850708,490.991241 
	C1682.354248,491.863159 1691.832275,492.710480 1700.562378,497.164459 
	C1710.550659,502.260345 1716.211670,511.153320 1718.543335,521.266418 
	C1719.743652,526.472229 1716.638550,532.813416 1715.000122,538.503784 
	C1710.413696,554.434021 1701.198853,567.808655 1689.775269,579.337341 
	C1682.661377,586.516663 1674.082275,592.469421 1665.484009,597.901428 
	C1651.454590,606.764587 1635.931641,612.197144 1619.370239,613.944458 
	C1603.740967,615.593445 1588.046143,617.822571 1572.389648,617.750061 
	C1543.561279,617.616516 1515.085327,613.926147 1488.193604,602.568542 
	C1474.751099,596.891174 1461.546875,590.650208 1448.227295,584.681152 
	C1445.593628,583.500854 1442.924927,582.398621 1440.272217,581.260315 
	C1437.468262,605.566589 1436.449341,630.039246 1428.863770,653.368042 
	C1425.704102,663.085449 1421.327026,672.452698 1416.954346,681.720093 
	C1409.199341,698.156128 1401.487793,714.642456 1392.903809,730.649658 
	C1383.186157,748.770691 1372.524170,766.385071 1362.281616,784.224915 
	C1355.161865,796.625916 1347.763916,808.878662 1341.025024,821.483582 
	C1333.689087,835.204956 1326.761719,849.156555 1320.046021,863.194275 
	C1313.996704,875.839050 1311.544678,889.495667 1309.990356,903.330139 
	C1309.044067,911.751099 1307.250244,920.155640 1307.183228,928.578186 
	C1307.080933,941.418518 1309.322510,953.971375 1314.373291,966.004456 
	C1319.256958,977.639587 1323.961426,989.396790 1327.837402,1001.393433 
	C1331.041260,1011.309692 1333.155518,1021.604492 1335.302490,1031.826172 
	C1336.635376,1038.172363 1337.471191,1044.671143 1337.918823,1051.143799 
	C1338.568848,1060.539795 1339.318604,1070.005005 1338.872559,1079.385742 
	C1337.731323,1103.382202 1333.580322,1126.732178 1318.938965,1146.696655 
	C1311.437866,1156.924683 1303.240234,1166.660767 1295.043823,1176.353882 
	C1288.669678,1183.891968 1281.793579,1191.004761 1275.193848,1198.354614 
	C1274.591431,1199.025391 1274.314819,1200.022949 1273.994141,1200.907715 
	C1264.723633,1226.486328 1245.604736,1239.905151 1219.692017,1245.014038 
	C1203.817383,1248.144043 1188.459595,1244.959961 1173.415283,1240.597412 
	C1159.891602,1236.676025 1146.707397,1236.636475 1133.249512,1240.302368 
	C1119.485352,1244.051758 1105.191772,1245.672363 1091.254150,1243.707031 
	C1069.529907,1240.643311 1051.680542,1230.079346 1040.015869,1210.720337 
	C1038.454834,1208.129883 1036.780029,1205.334351 1036.270874,1202.438110 
	C1035.045776,1195.469604 1030.076904,1191.132446 1025.789429,1186.385498 
	C1012.741028,1171.938965 998.430603,1158.563965 988.241211,1141.722900 
	C982.262634,1131.841553 978.222595,1121.289185 976.898010,1109.711060 
	C975.419250,1096.784180 972.497192,1083.912231 972.257019,1070.978271 
	C971.850952,1049.109741 975.600769,1027.501831 982.241882,1006.707886 
	C988.715759,986.437439 996.799927,966.684509 1003.963501,946.627991 
	C1005.190857,943.191650 1005.987915,939.355225 1005.886230,935.734375 
	C1005.501892,922.059570 1005.340393,908.321899 1003.821411,894.750305 
	C1002.044617,878.875854 997.420776,863.644226 990.065613,849.303467 
	C981.922546,833.426453 974.432129,817.205261 965.981201,801.497864 
	C953.723022,778.713867 940.388550,756.502136 928.393738,733.585449 
	C917.902283,713.540955 908.293884,693.010864 898.956238,672.395935 
	C894.417542,662.375793 890.752747,651.844177 887.870850,641.224365 
	C885.381287,632.050232 884.251953,622.461914 883.073242,612.988037 
	C881.385193,599.420532 880.199646,585.790588 878.713928,571.356079 
	C876.180298,573.506531 874.215332,575.369568 872.057861,576.973572 
	C858.600830,586.978210 843.237976,592.945068 827.437866,598.022095 
	C810.631958,603.422302 793.545776,607.568848 775.924988,608.932922 
	C762.783569,609.950256 749.592834,610.822937 736.424500,610.816895 
	C728.509460,610.813232 720.553162,609.251282 712.690857,607.938110 
	C702.196472,606.185303 691.435974,605.036926 681.394653,601.769836 
	C661.745605,595.376831 644.222534,584.889587 630.114380,569.514038 
	C616.086304,554.225891 606.641785,536.251892 603.476868,515.784668 
	C602.711609,510.836182 606.988098,504.603638 610.074829,499.667358 
	C616.838684,488.850616 627.526672,484.166321 639.869141,483.037750 
	C648.332214,482.263947 656.993408,482.707245 665.273865,481.100739 
	C678.829895,478.470734 690.633179,471.324463 702.287964,464.185638 
	C706.601929,461.543304 710.787476,458.691376 714.455078,456.309418 
	C703.270142,452.737671 692.068665,449.829376 681.399353,445.583771 
	C668.148010,440.310669 655.103333,434.390656 642.388672,427.925354 
	C621.956726,417.535858 602.492004,405.416046 584.648621,391.001617 
	C567.104553,376.828979 549.762695,362.359375 533.011108,347.266479 
	C518.335999,334.044495 504.358032,320.016663 490.532196,305.894379 
	C479.705627,294.835663 470.038605,282.626312 459.033875,271.761292 
	C444.869385,257.776581 429.749725,244.709259 412.854218,234.075592 
	C389.575104,219.424240 366.077972,205.102814 342.378204,191.142593 
	C328.407501,182.913193 313.987000,175.415924 299.545044,168.026703 
	C284.407745,160.281677 268.006805,156.245285 251.415375,153.017822 
	C239.042282,150.610901 226.672913,148.148331 214.233978,146.128876 
	C205.553238,144.719559 196.747955,144.093567 188.015930,142.979599 
	C178.339310,141.745148 168.705032,140.149582 159.010880,139.090698 
	C150.206467,138.128998 141.344193,137.704224 132.511322,136.994232 
	C114.309532,135.531158 95.939430,136.222351 78.046982,131.120850 
	C62.247860,126.616211 49.322430,119.144234 44.016132,102.626518 
	C39.551098,88.727539 41.185787,75.185265 49.508778,63.195095 
	C56.499111,53.124767 67.458366,49.098843 79.129128,47.006008 
	C112.823769,40.963802 146.868271,41.573864 180.862595,42.175819 
	C190.213776,42.341404 199.519165,44.702915 208.860275,45.946209 
	C217.095749,47.042339 225.357712,47.938091 233.597290,49.004906 
	C246.175430,50.633446 258.837067,51.830082 271.294495,54.125805 
	C288.089539,57.220886 304.756561,61.043102 321.419312,64.814865 
	C339.938965,69.006943 357.696808,75.444229 374.933685,83.419548 
	C396.488312,93.392624 418.566040,102.328217 439.646454,113.206726 
	C460.617218,124.028633 480.917328,136.243546 500.980865,148.702240 
	C518.777893,159.753494 535.934998,171.849030 553.210632,183.722107 
	C569.046570,194.605713 584.454956,206.121765 600.454163,216.753510 
	C610.204712,223.232941 620.538208,228.907532 630.923828,234.343872 
	C652.680237,245.732239 674.425720,257.181671 696.579895,267.759430 
	C722.485168,280.128204 748.977478,291.265076 774.919739,303.559570 
	C794.954163,313.054291 815.416626,321.289825 836.476624,328.152527 
	C849.627991,332.438049 863.001892,335.043152 876.859009,333.957581 
	C892.105469,332.763184 904.777039,326.272522 912.316101,312.790527 
	C915.614502,306.892181 920.330261,303.910156 925.525574,300.949646 
	C943.595215,290.652527 962.814941,283.569244 983.546997,281.013458 
	C992.775940,279.875702 1002.016663,278.708923 1011.287415,278.061737 
	C1028.695435,276.846527 1046.149292,276.252747 1063.541870,274.868774 
	C1070.078491,274.348602 1076.467773,272.172607 1082.978394,271.072632 
	C1090.175781,269.856537 1097.419189,268.304901 1104.671021,268.138580 
	C1122.902222,267.720367 1141.149536,268.000275 1158.908691,268.000275 
	C1158.997803,268.227631 1159.082764,269.395935 1159.701294,269.873932 
	C1164.951538,273.931488 1171.409790,274.547577 1176.687134,271.767334 
	C1189.880249,264.816620 1203.330444,267.500427 1216.815308,269.062317 
	C1225.333984,270.049042 1234.053345,270.759338 1242.192749,273.216400 
	C1254.066162,276.800659 1266.134521,276.088287 1278.148193,277.046997 
	C1292.333862,278.179047 1306.492798,279.650269 1320.660767,281.000397 
	C1340.673462,282.907532 1360.133057,287.367096 1379.078125,294.016235 
	C1389.125610,297.542603 1399.366699,300.923737 1406.717407,309.293701 
	C1409.705200,312.695984 1412.955811,316.147339 1414.870361,320.157166 
	C1419.596924,330.056335 1428.525879,333.322174 1437.935303,335.941132 
	C1443.814209,337.577454 1449.808105,339.380463 1455.832153,339.739685 
	C1461.067261,340.051880 1466.470337,338.702362 1471.707153,337.635895 
	C1497.798462,332.322540 1522.316528,322.418976 1546.613647,311.839722 
	C1575.266479,299.363922 1604.283569,287.684418 1632.617798,274.529175 
	C1656.959595,263.227661 1680.763062,250.708740 1704.421509,238.013977 
	C1719.983276,229.663681 1735.093018,220.402863 1749.984009,210.890503 
	C1763.713379,202.120316 1776.637695,192.091232 1790.354858,183.300308 
	C1809.178955,171.236420 1828.203735,159.450592 1847.544556,148.239288 
	C1862.692505,139.458466 1878.229492,131.273743 1893.988647,123.639404 
	C1920.248047,110.918266 1947.000122,99.266029 1974.719604,90.010780 
	C1987.333008,85.799332 1999.886597,81.308296 2012.717285,77.880241 
	C2022.834961,75.177002 2033.318970,73.811867 2043.670044,72.025009 
	C2055.643555,69.958076 2067.624756,67.906471 2079.649658,66.176491 
	C2088.848633,64.853073 2098.111816,63.950932 2107.362793,63.020794 
	C2121.360107,61.613430 2135.370605,60.337284 2149.377930,59.030460 
	C2150.534912,58.922508 2151.709961,59.000809 2152.876465,59.000725 
	C2168.542725,58.999641 2184.241699,58.359509 2199.866943,59.159973 
	C2220.001221,60.191429 2240.109131,61.998180 2259.803955,66.914116 
	C2274.395752,70.556259 2283.251221,80.468849 2289.529785,93.248207 
	C2290.473145,95.168556 2290.169189,97.871155 2289.946533,100.163795 
	C2289.271240,107.121803 2288.601074,114.097046 2287.468750,120.989906 
	C2285.878418,130.669525 2278.703857,136.250885 2271.083496,140.885239 
	C2260.893555,147.082306 2249.530029,150.110870 2237.631104,150.995193 
	C2223.881104,152.017105 2210.126953,152.982101 2196.377197,154.006439 
	C2183.286377,154.981689 2170.174805,155.759125 2157.116943,157.068481 
	C2143.504395,158.433472 2129.926758,160.196091 2116.367188,162.032227 
	C2102.860840,163.861176 2089.390137,165.959152 2075.914551,168.007980 
	C2057.822021,170.758743 2040.455566,176.137909 2024.241089,184.474335 
	C1999.384521,197.253983 1974.589355,210.217834 1950.360840,224.135391 
	C1927.007324,237.550323 1903.748657,251.433914 1883.462402,269.321991 
	C1870.308350,280.921143 1858.532349,294.075623 1846.024536,306.417236 
	C1834.088867,318.194214 1822.343750,330.196533 1809.903076,341.421692 
	C1793.247925,356.449371 1776.556519,371.535919 1758.859253,385.282135 
	C1740.516113,399.530243 1721.448730,412.996185 1701.786743,425.354340 
	C1681.402954,438.166351 1659.563110,448.460846 1636.267578,456.300720 
M116.388611,81.999786 
	C104.617531,83.224266 92.846458,84.448753 80.957230,85.685524 
	C82.912460,92.021225 83.047043,91.624924 87.318153,93.075363 
	C101.066994,97.744400 115.469521,96.306671 129.535156,97.925659 
	C143.999969,99.590591 158.545151,100.544273 173.032303,102.031898 
	C187.793350,103.547638 202.604721,104.835670 217.251953,107.130325 
	C235.123657,109.930122 252.981491,113.095299 270.597504,117.173103 
	C288.551544,121.329178 306.196503,126.763817 322.494141,135.805237 
	C336.100250,143.353470 350.042877,150.315598 363.459015,158.181091 
	C386.347351,171.599854 409.566895,184.603088 431.461060,199.521698 
	C449.433502,211.768051 466.520691,225.641068 482.463623,240.447586 
	C498.897278,255.709854 513.175659,273.265747 528.951904,289.271210 
	C542.545532,303.062317 556.760437,316.256897 571.005920,329.384003 
	C580.149109,337.809326 589.443909,346.172455 599.392578,353.596069 
	C612.697693,363.524200 626.521606,372.793060 640.451172,381.839355 
	C658.413269,393.504517 677.410095,403.596497 697.873901,409.778870 
	C727.375061,418.691498 757.355652,426.018585 787.140076,433.990936 
	C794.383789,435.929840 801.660217,437.746307 809.718689,439.824615 
	C798.029785,447.637299 787.273193,454.934052 776.407898,462.065338 
	C757.556335,474.438293 739.099670,487.504425 719.626404,498.814728 
	C696.863892,512.035522 672.303101,520.727661 645.434143,521.384888 
	C651.950378,538.269348 664.011841,550.385437 679.663086,558.770447 
	C689.435913,564.006104 699.850769,567.684326 711.368286,568.189392 
	C722.401123,568.673218 733.356812,570.773315 744.372070,571.916382 
	C746.720764,572.160156 749.171143,571.160828 751.589661,571.043030 
	C760.327637,570.617249 769.199524,571.143311 777.787415,569.808350 
	C795.591492,567.040833 813.146179,562.778931 829.838013,555.861328 
	C838.461426,552.287537 846.874756,548.212585 853.595703,541.073792 
	C867.943848,525.833618 882.804382,511.076782 897.398926,496.067291 
	C901.073425,492.288300 904.461304,488.230865 908.127930,484.443695 
	C909.922852,482.589783 912.054749,481.062103 914.459106,479.027039 
	C915.015991,489.860718 915.559387,499.430206 915.988220,509.004791 
	C916.697449,524.841125 917.113098,540.693909 918.057007,556.515625 
	C919.141724,574.698303 920.322754,592.889160 922.139404,611.008545 
	C923.103638,620.625305 924.023376,630.689880 927.553772,639.516052 
	C935.520691,659.433960 944.357544,679.090149 954.198608,698.151611 
	C968.204041,725.279297 983.750916,751.607117 998.026367,778.600708 
	C1008.768127,798.912231 1018.398560,819.808289 1028.798340,840.304810 
	C1038.413696,859.255127 1041.343140,879.887878 1043.780884,900.495728 
	C1045.292603,913.275085 1045.253174,926.328918 1044.778442,939.217896 
	C1044.497314,946.855957 1042.848633,954.699402 1040.356934,961.949402 
	C1034.374878,979.354309 1026.894897,996.256287 1021.210327,1013.748169 
	C1015.117432,1032.496948 1011.099365,1051.818604 1012.045044,1071.764282 
	C1012.440674,1080.106567 1013.258545,1088.432007 1014.016357,1096.753052 
	C1015.354370,1111.444824 1021.669983,1123.963745 1031.368530,1134.798950 
	C1039.954834,1144.391846 1049.126831,1153.468140 1057.548462,1163.198242 
	C1063.728394,1170.338379 1070.146484,1177.330688 1072.377808,1187.273438 
	C1073.265015,1191.226929 1076.852173,1195.111206 1080.165405,1197.886597 
	C1091.771484,1207.608765 1105.441040,1205.736206 1118.901001,1203.520264 
	C1128.288452,1201.974731 1137.545532,1198.614258 1146.927979,1198.336670 
	C1157.250366,1198.031006 1167.724243,1199.883423 1177.996216,1201.605591 
	C1190.026611,1203.622437 1201.539917,1209.103760 1214.244019,1206.040771 
	C1225.104370,1203.422119 1233.573975,1198.240112 1237.062256,1186.896851 
	C1237.851562,1184.330322 1238.528931,1181.426147 1240.195679,1179.481079 
	C1252.044067,1165.654053 1264.469971,1152.309692 1276.017700,1138.242065 
	C1282.328613,1130.553955 1287.975342,1122.124634 1292.677612,1113.362061 
	C1298.523560,1102.468262 1298.962280,1089.991333 1299.869507,1077.938965 
	C1300.957642,1063.483887 1299.422485,1049.019897 1295.853882,1035.018188 
	C1291.819214,1019.188232 1288.221558,1002.950073 1281.624634,988.140808 
	C1272.161133,966.895935 1266.746582,945.456665 1269.033081,922.281311 
	C1270.168945,910.768311 1271.774780,899.302124 1272.952148,887.792725 
	C1275.053833,867.250732 1283.080811,848.683777 1291.995117,830.443970 
	C1296.720215,820.775940 1301.815063,811.276428 1307.055542,801.875061 
	C1314.256104,788.957336 1321.737915,776.195984 1329.127075,763.383606 
	C1339.082275,746.121338 1349.522949,729.119141 1358.897827,711.547974 
	C1367.364990,695.678284 1374.049438,678.850281 1382.654175,663.063110 
	C1394.712891,640.938721 1397.195679,616.737976 1399.963257,592.500916 
	C1401.187988,581.775757 1401.911255,570.994141 1403.048218,560.257874 
	C1404.249878,548.911682 1405.886597,537.607727 1406.887573,526.246094 
	C1407.251343,522.115173 1408.074829,521.441284 1411.845215,523.300964 
	C1433.472534,533.968262 1455.203491,544.425049 1476.877930,554.997192 
	C1493.942871,563.321106 1511.434692,570.503662 1530.066772,574.494263 
	C1540.397217,576.706787 1550.499878,580.001953 1561.415039,579.113892 
	C1575.378540,577.977905 1589.472290,578.266052 1603.389404,576.797668 
	C1613.250244,575.757263 1623.450439,574.130737 1632.520020,570.390991 
	C1642.945923,566.092041 1652.919434,559.997314 1661.911377,553.138123 
	C1669.294067,547.506409 1676.439453,540.816040 1680.707886,530.000000 
	C1673.149170,530.000000 1666.474121,530.015320 1659.799316,529.988159 
	C1658.313354,529.982117 1656.708008,530.163757 1655.361206,529.685669 
	C1645.565430,526.208557 1635.791626,522.664001 1626.074341,518.973572 
	C1621.317505,517.166992 1616.856812,513.919495 1611.984497,513.197266 
	C1595.064453,510.689270 1578.048828,508.732178 1561.019653,507.080963 
	C1545.310913,505.557770 1532.994751,498.552612 1525.553467,484.783630 
	C1520.308594,475.078613 1516.704102,460.662537 1528.512085,449.892822 
	C1531.645020,447.035522 1534.379272,443.667114 1536.920288,440.253235 
	C1540.208130,435.835938 1543.705322,431.899353 1549.466064,430.932953 
	C1557.422729,429.598145 1565.355591,428.058044 1573.355225,427.057648 
	C1585.979858,425.478912 1598.909058,425.428040 1611.249390,422.671753 
	C1636.388306,417.056885 1659.324829,405.424866 1681.061035,392.057343 
	C1699.734131,380.573547 1717.631958,367.664429 1734.969482,354.220886 
	C1751.893677,341.097961 1768.260986,327.119324 1783.805664,312.390137 
	C1802.498657,294.677795 1819.755493,275.457794 1838.239136,257.513550 
	C1848.660767,247.395950 1860.012817,238.167084 1871.451294,229.181335 
	C1893.302612,212.015549 1917.263916,198.027206 1941.347168,184.295609 
	C1951.951416,178.249329 1963.000122,172.969849 1973.499390,166.754959 
	C1992.920776,155.258789 2013.155518,145.508026 2034.434448,138.103394 
	C2050.920410,132.366638 2068.073730,129.243454 2085.383057,126.945580 
	C2098.572998,125.194572 2111.668945,122.715599 2124.871094,121.080902 
	C2138.497559,119.393692 2152.187256,118.147911 2165.876709,117.052429 
	C2181.115967,115.832932 2196.395996,115.131218 2211.638916,113.952515 
	C2221.231445,113.210747 2230.769775,111.662033 2240.368408,111.151016 
	C2245.419678,110.882088 2247.052734,107.981613 2248.773926,104.079628 
	C2245.512695,103.674721 2242.617676,103.306038 2239.720459,102.957130 
	C2225.974854,101.301811 2212.258057,98.612114 2198.476318,98.223900 
	C2172.540039,97.493301 2146.551025,97.359985 2120.708984,100.933319 
	C2110.515625,102.342850 2100.180176,102.718826 2089.983154,104.107445 
	C2077.786377,105.768417 2065.646240,107.885605 2053.522217,110.033745 
	C2040.804077,112.287155 2027.812622,113.738747 2015.505615,117.426247 
	C1983.703247,126.955147 1952.796509,139.112167 1922.731079,153.174713 
	C1905.109009,161.417084 1888.000732,170.793839 1870.879395,180.063095 
	C1841.947021,195.726761 1814.538330,213.803848 1787.588867,232.668228 
	C1756.180542,254.653839 1723.024780,273.819366 1688.739258,290.973328 
	C1674.808228,297.943420 1660.635132,304.433655 1646.520752,311.032318 
	C1637.077148,315.447327 1627.610962,319.827271 1618.034180,323.941833 
	C1601.107910,331.214142 1584.099365,338.296021 1567.106323,345.412415 
	C1553.806641,350.982056 1540.729492,357.226868 1527.099365,361.826477 
	C1510.093506,367.565277 1492.702271,372.235748 1475.309937,376.718170 
	C1468.741943,378.410919 1461.633179,379.289032 1454.900146,378.790863 
	C1440.725830,377.742096 1426.875854,374.395996 1413.728882,368.876129 
	C1402.262451,364.061829 1391.170410,358.255280 1385.282227,346.504456 
	C1381.034912,338.028381 1374.455078,333.602142 1365.635742,330.778381 
	C1351.770874,326.339142 1337.835205,322.572601 1323.344727,320.976440 
	C1308.590210,319.351105 1293.870117,317.329010 1279.083130,316.110474 
	C1268.210327,315.214508 1257.253174,315.357361 1246.336182,314.966980 
	C1245.088623,314.922394 1243.861816,314.404114 1242.618164,314.139130 
	C1231.431885,311.755768 1220.342896,308.455353 1209.030640,307.245483 
	C1196.079224,305.860382 1182.927979,306.033630 1169.865234,306.071350 
	C1150.945557,306.125946 1132.015015,306.365753 1113.114136,307.137726 
	C1104.733887,307.480042 1096.404541,309.250946 1088.071533,310.501953 
	C1083.434814,311.198029 1078.869507,312.524658 1074.216797,312.925507 
	C1063.734009,313.828674 1053.213379,314.284393 1042.714355,315.010651 
	C1028.956665,315.962372 1015.213745,317.149200 1001.448181,317.956787 
	C988.093506,318.740234 975.133240,321.640411 962.744385,326.280792 
	C953.922791,329.584991 944.220520,332.366364 939.343811,342.047974 
	C938.199341,344.320099 936.242065,346.271484 934.374756,348.076691 
	C920.230530,361.751038 903.745972,370.080627 883.826355,372.199158 
	C868.747070,373.802917 853.864075,373.404541 839.444519,369.557861 
	C813.563416,362.653625 788.430908,353.441589 764.254578,341.742584 
	C751.833557,335.731995 739.227539,330.104004 726.711304,324.289673 
	C702.841064,313.200928 678.864014,302.333588 655.147766,290.924438 
	C640.104553,283.687683 625.347046,275.832916 610.658264,267.891235 
	C599.346558,261.775360 588.028198,255.570648 577.284851,248.532211 
	C565.656067,240.913742 554.862793,232.032562 543.397888,224.148834 
	C524.407104,211.090057 505.435760,197.969391 485.962585,185.655441 
	C466.535492,173.370621 446.736481,161.623291 426.651917,150.446442 
	C413.090851,142.899841 398.979095,136.220993 384.705841,130.105820 
	C365.575867,121.909813 346.358582,113.693733 326.604645,107.244980 
	C309.232391,101.573723 291.174896,97.804840 273.223022,94.168648 
	C259.239655,91.336281 244.959885,89.952110 230.799408,88.015312 
	C222.409546,86.867790 213.996017,85.892853 205.592255,84.847488 
	C195.250717,83.561066 184.935287,81.548950 174.560074,81.166740 
	C157.749756,80.547470 140.899750,80.962906 124.067001,81.044197 
	C121.815170,81.055069 119.566216,81.664612 116.388611,81.999786 
z" data-index="6" style="opacity: 1;"></path>

<path fill="#FFFFFF" opacity="1.000000" stroke="none" d="
M116.852272,81.998352 
	C119.566216,81.664612 121.815170,81.055069 124.067001,81.044197 
	C140.899750,80.962906 157.749756,80.547470 174.560074,81.166740 
	C184.935287,81.548950 195.250717,83.561066 205.592255,84.847488 
	C213.996017,85.892853 222.409546,86.867790 230.799408,88.015312 
	C244.959885,89.952110 259.239655,91.336281 273.223022,94.168648 
	C291.174896,97.804840 309.232391,101.573723 326.604645,107.244980 
	C346.358582,113.693733 365.575867,121.909813 384.705841,130.105820 
	C398.979095,136.220993 413.090851,142.899841 426.651917,150.446442 
	C446.736481,161.623291 466.535492,173.370621 485.962585,185.655441 
	C505.435760,197.969391 524.407104,211.090057 543.397888,224.148834 
	C554.862793,232.032562 565.656067,240.913742 577.284851,248.532211 
	C588.028198,255.570648 599.346558,261.775360 610.658264,267.891235 
	C625.347046,275.832916 640.104553,283.687683 655.147766,290.924438 
	C678.864014,302.333588 702.841064,313.200928 726.711304,324.289673 
	C739.227539,330.104004 751.833557,335.731995 764.254578,341.742584 
	C788.430908,353.441589 813.563416,362.653625 839.444519,369.557861 
	C853.864075,373.404541 868.747070,373.802917 883.826355,372.199158 
	C903.745972,370.080627 920.230530,361.751038 934.374756,348.076691 
	C936.242065,346.271484 938.199341,344.320099 939.343811,342.047974 
	C944.220520,332.366364 953.922791,329.584991 962.744385,326.280792 
	C975.133240,321.640411 988.093506,318.740234 1001.448181,317.956787 
	C1015.213745,317.149200 1028.956665,315.962372 1042.714355,315.010651 
	C1053.213379,314.284393 1063.734009,313.828674 1074.216797,312.925507 
	C1078.869507,312.524658 1083.434814,311.198029 1088.071533,310.501953 
	C1096.404541,309.250946 1104.733887,307.480042 1113.114136,307.137726 
	C1132.015015,306.365753 1150.945557,306.125946 1169.865234,306.071350 
	C1182.927979,306.033630 1196.079224,305.860382 1209.030640,307.245483 
	C1220.342896,308.455353 1231.431885,311.755768 1242.618164,314.139130 
	C1243.861816,314.404114 1245.088623,314.922394 1246.336182,314.966980 
	C1257.253174,315.357361 1268.210327,315.214508 1279.083130,316.110474 
	C1293.870117,317.329010 1308.590210,319.351105 1323.344727,320.976440 
	C1337.835205,322.572601 1351.770874,326.339142 1365.635742,330.778381 
	C1374.455078,333.602142 1381.034912,338.028381 1385.282227,346.504456 
	C1391.170410,358.255280 1402.262451,364.061829 1413.728882,368.876129 
	C1426.875854,374.395996 1440.725830,377.742096 1454.900146,378.790863 
	C1461.633179,379.289032 1468.741943,378.410919 1475.309937,376.718170 
	C1492.702271,372.235748 1510.093506,367.565277 1527.099365,361.826477 
	C1540.729492,357.226868 1553.806641,350.982056 1567.106323,345.412415 
	C1584.099365,338.296021 1601.107910,331.214142 1618.034180,323.941833 
	C1627.610962,319.827271 1637.077148,315.447327 1646.520752,311.032318 
	C1660.635132,304.433655 1674.808228,297.943420 1688.739258,290.973328 
	C1723.024780,273.819366 1756.180542,254.653839 1787.588867,232.668228 
	C1814.538330,213.803848 1841.947021,195.726761 1870.879395,180.063095 
	C1888.000732,170.793839 1905.109009,161.417084 1922.731079,153.174713 
	C1952.796509,139.112167 1983.703247,126.955147 2015.505615,117.426247 
	C2027.812622,113.738747 2040.804077,112.287155 2053.522217,110.033745 
	C2065.646240,107.885605 2077.786377,105.768417 2089.983154,104.107445 
	C2100.180176,102.718826 2110.515625,102.342850 2120.708984,100.933319 
	C2146.551025,97.359985 2172.540039,97.493301 2198.476318,98.223900 
	C2212.258057,98.612114 2225.974854,101.301811 2239.720459,102.957130 
	C2242.617676,103.306038 2245.512695,103.674721 2248.773926,104.079628 
	C2247.052734,107.981613 2245.419678,110.882088 2240.368408,111.151016 
	C2230.769775,111.662033 2221.231445,113.210747 2211.638916,113.952515 
	C2196.395996,115.131218 2181.115967,115.832932 2165.876709,117.052429 
	C2152.187256,118.147911 2138.497559,119.393692 2124.871094,121.080902 
	C2111.668945,122.715599 2098.572998,125.194572 2085.383057,126.945580 
	C2068.073730,129.243454 2050.920410,132.366638 2034.434448,138.103394 
	C2013.155518,145.508026 1992.920776,155.258789 1973.499390,166.754959 
	C1963.000122,172.969849 1951.951416,178.249329 1941.347168,184.295609 
	C1917.263916,198.027206 1893.302612,212.015549 1871.451294,229.181335 
	C1860.012817,238.167084 1848.660767,247.395950 1838.239136,257.513550 
	C1819.755493,275.457794 1802.498657,294.677795 1783.805664,312.390137 
	C1768.260986,327.119324 1751.893677,341.097961 1734.969482,354.220886 
	C1717.631958,367.664429 1699.734131,380.573547 1681.061035,392.057343 
	C1659.324829,405.424866 1636.388306,417.056885 1611.249390,422.671753 
	C1598.909058,425.428040 1585.979858,425.478912 1573.355225,427.057648 
	C1565.355591,428.058044 1557.422729,429.598145 1549.466064,430.932953 
	C1543.705322,431.899353 1540.208130,435.835938 1536.920288,440.253235 
	C1534.379272,443.667114 1531.645020,447.035522 1528.512085,449.892822 
	C1516.704102,460.662537 1520.308594,475.078613 1525.553467,484.783630 
	C1532.994751,498.552612 1545.310913,505.557770 1561.019653,507.080963 
	C1578.048828,508.732178 1595.064453,510.689270 1611.984497,513.197266 
	C1616.856812,513.919495 1621.317505,517.166992 1626.074341,518.973572 
	C1635.791626,522.664001 1645.565430,526.208557 1655.361206,529.685669 
	C1656.708008,530.163757 1658.313354,529.982117 1659.799316,529.988159 
	C1666.474121,530.015320 1673.149170,530.000000 1680.707886,530.000000 
	C1676.439453,540.816040 1669.294067,547.506409 1661.911377,553.138123 
	C1652.919434,559.997314 1642.945923,566.092041 1632.520020,570.390991 
	C1623.450439,574.130737 1613.250244,575.757263 1603.389404,576.797668 
	C1589.472290,578.266052 1575.378540,577.977905 1561.415039,579.113892 
	C1550.499878,580.001953 1540.397217,576.706787 1530.066772,574.494263 
	C1511.434692,570.503662 1493.942871,563.321106 1476.877930,554.997192 
	C1455.203491,544.425049 1433.472534,533.968262 1411.845215,523.300964 
	C1408.074829,521.441284 1407.251343,522.115173 1406.887573,526.246094 
	C1405.886597,537.607727 1404.249878,548.911682 1403.048218,560.257874 
	C1401.911255,570.994141 1401.187988,581.775757 1399.963257,592.500916 
	C1397.195679,616.737976 1394.712891,640.938721 1382.654175,663.063110 
	C1374.049438,678.850281 1367.364990,695.678284 1358.897827,711.547974 
	C1349.522949,729.119141 1339.082275,746.121338 1329.127075,763.383606 
	C1321.737915,776.195984 1314.256104,788.957336 1307.055542,801.875061 
	C1301.815063,811.276428 1296.720215,820.775940 1291.995117,830.443970 
	C1283.080811,848.683777 1275.053833,867.250732 1272.952148,887.792725 
	C1271.774780,899.302124 1270.168945,910.768311 1269.033081,922.281311 
	C1266.746582,945.456665 1272.161133,966.895935 1281.624634,988.140808 
	C1288.221558,1002.950073 1291.819214,1019.188232 1295.853882,1035.018188 
	C1299.422485,1049.019897 1300.957642,1063.483887 1299.869507,1077.938965 
	C1298.962280,1089.991333 1298.523560,1102.468262 1292.677612,1113.362061 
	C1287.975342,1122.124634 1282.328613,1130.553955 1276.017700,1138.242065 
	C1264.469971,1152.309692 1252.044067,1165.654053 1240.195679,1179.481079 
	C1238.528931,1181.426147 1237.851562,1184.330322 1237.062256,1186.896851 
	C1233.573975,1198.240112 1225.104370,1203.422119 1214.244019,1206.040771 
	C1201.539917,1209.103760 1190.026611,1203.622437 1177.996216,1201.605591 
	C1167.724243,1199.883423 1157.250366,1198.031006 1146.927979,1198.336670 
	C1137.545532,1198.614258 1128.288452,1201.974731 1118.901001,1203.520264 
	C1105.441040,1205.736206 1091.771484,1207.608765 1080.165405,1197.886597 
	C1076.852173,1195.111206 1073.265015,1191.226929 1072.377808,1187.273438 
	C1070.146484,1177.330688 1063.728394,1170.338379 1057.548462,1163.198242 
	C1049.126831,1153.468140 1039.954834,1144.391846 1031.368530,1134.798950 
	C1021.669983,1123.963745 1015.354370,1111.444824 1014.016357,1096.753052 
	C1013.258545,1088.432007 1012.440674,1080.106567 1012.045044,1071.764282 
	C1011.099365,1051.818604 1015.117432,1032.496948 1021.210327,1013.748169 
	C1026.894897,996.256287 1034.374878,979.354309 1040.356934,961.949402 
	C1042.848633,954.699402 1044.497314,946.855957 1044.778442,939.217896 
	C1045.253174,926.328918 1045.292603,913.275085 1043.780884,900.495728 
	C1041.343140,879.887878 1038.413696,859.255127 1028.798340,840.304810 
	C1018.398560,819.808289 1008.768127,798.912231 998.026367,778.600708 
	C983.750916,751.607117 968.204041,725.279297 954.198608,698.151611 
	C944.357544,679.090149 935.520691,659.433960 927.553772,639.516052 
	C924.023376,630.689880 923.103638,620.625305 922.139404,611.008545 
	C920.322754,592.889160 919.141724,574.698303 918.057007,556.515625 
	C917.113098,540.693909 916.697449,524.841125 915.988220,509.004791 
	C915.559387,499.430206 915.015991,489.860718 914.459106,479.027039 
	C912.054749,481.062103 909.922852,482.589783 908.127930,484.443695 
	C904.461304,488.230865 901.073425,492.288300 897.398926,496.067291 
	C882.804382,511.076782 867.943848,525.833618 853.595703,541.073792 
	C846.874756,548.212585 838.461426,552.287537 829.838013,555.861328 
	C813.146179,562.778931 795.591492,567.040833 777.787415,569.808350 
	C769.199524,571.143311 760.327637,570.617249 751.589661,571.043030 
	C749.171143,571.160828 746.720764,572.160156 744.372070,571.916382 
	C733.356812,570.773315 722.401123,568.673218 711.368286,568.189392 
	C699.850769,567.684326 689.435913,564.006104 679.663086,558.770447 
	C664.011841,550.385437 651.950378,538.269348 645.434143,521.384888 
	C672.303101,520.727661 696.863892,512.035522 719.626404,498.814728 
	C739.099670,487.504425 757.556335,474.438293 776.407898,462.065338 
	C787.273193,454.934052 798.029785,447.637299 809.718689,439.824615 
	C801.660217,437.746307 794.383789,435.929840 787.140076,433.990936 
	C757.355652,426.018585 727.375061,418.691498 697.873901,409.778870 
	C677.410095,403.596497 658.413269,393.504517 640.451172,381.839355 
	C626.521606,372.793060 612.697693,363.524200 599.392578,353.596069 
	C589.443909,346.172455 580.149109,337.809326 571.005920,329.384003 
	C556.760437,316.256897 542.545532,303.062317 528.951904,289.271210 
	C513.175659,273.265747 498.897278,255.709854 482.463623,240.447586 
	C466.520691,225.641068 449.433502,211.768051 431.461060,199.521698 
	C409.566895,184.603088 386.347351,171.599854 363.459015,158.181091 
	C350.042877,150.315598 336.100250,143.353470 322.494141,135.805237 
	C306.196503,126.763817 288.551544,121.329178 270.597504,117.173103 
	C252.981491,113.095299 235.123657,109.930122 217.251953,107.130325 
	C202.604721,104.835670 187.793350,103.547638 173.032303,102.031898 
	C158.545151,100.544273 143.999969,99.590591 129.535156,97.925659 
	C115.469521,96.306671 101.066994,97.744400 87.318153,93.075363 
	C83.047043,91.624924 82.912460,92.021225 80.957230,85.685524 
	C92.846458,84.448753 104.617531,83.224266 116.852272,81.998352 
z" data-index="8" style="opacity: 1;"></path>

<path fill="#000000" opacity="1.000000" stroke="none" d="
M1417.000000,1211.068848 
	C1417.000000,1208.933350 1417.000000,1207.284180 1417.000000,1204.406982 
	C1423.480347,1205.098877 1429.814087,1205.313721 1435.929199,1206.582642 
	C1440.341553,1207.498169 1440.849487,1212.011475 1439.740234,1215.336304 
	C1438.974609,1217.631592 1436.073364,1220.235596 1433.696167,1220.763062 
	C1428.486206,1221.919189 1423.002930,1221.843262 1417.000000,1222.320801 
	C1417.000000,1218.414307 1417.000000,1214.984619 1417.000000,1211.068848 
z" data-index="10" style="visibility: hidden;"></path>
</svg>